<svg id="Layer_2" data-name="Layer 2" xmlns="http://www.w3.org/2000/svg" viewBox="0 0 20 20"><title>Artboard 1</title><path d="M12.29,6.32l.25-1.09h2.59l-1.49,7a5.48,5.48,0,0,0-.14.88.51.51,0,0,0,.11.35.35.35,0,0,0,.27.13,2.44,2.44,0,0,0,1.37-.69,6,6,0,0,0,1.46-1.88,5.53,5.53,0,0,0,.62-2.6,5.55,5.55,0,0,0-.45-2.22,5.17,5.17,0,0,0-1.29-1.8,6,6,0,0,0-2.08-1.2,8.52,8.52,0,0,0-2.81-.43,9.79,9.79,0,0,0-2.93.42,7.42,7.42,0,0,0-2.34,1.2A6.73,6.73,0,0,0,3.75,6.34a8.38,8.38,0,0,0-.91,2.22A9.83,9.83,0,0,0,2.52,11a7,7,0,0,0,.67,3.08,6.25,6.25,0,0,0,1.95,2.34,8,8,0,0,0,3.09,1.34,13,13,0,0,0,4.1.16,9.73,9.73,0,0,0,3.07-.82,6.06,6.06,0,0,0,2.13-1.71h2.09a6.92,6.92,0,0,1-1.33,1.87,7.54,7.54,0,0,1-1.92,1.39,10,10,0,0,1-2.46.86,14.07,14.07,0,0,1-3,.29,13.93,13.93,0,0,1-4.34-.63,8.91,8.91,0,0,1-3.25-1.82,7.73,7.73,0,0,1-2-2.84A9.55,9.55,0,0,1,.69,10.9,10.77,10.77,0,0,1,1.38,7a9,9,0,0,1,5.2-5.24A11.1,11.1,0,0,1,10.75,1a10.28,10.28,0,0,1,3.42.54,7.57,7.57,0,0,1,2.66,1.56,6.8,6.8,0,0,1,1.69,2.42,7.93,7.93,0,0,1,.58,3.08,7.42,7.42,0,0,1-1.82,4.84A6.54,6.54,0,0,1,15.22,15a5.71,5.71,0,0,1-2.56.58,2.37,2.37,0,0,1-1.24-.27,1.33,1.33,0,0,1-.59-.86,3.8,3.8,0,0,1-2,1.06,3.66,3.66,0,0,1-2.15-.21A3.57,3.57,0,0,1,5,13.91a4.55,4.55,0,0,1-.64-2.49,7.41,7.41,0,0,1,.66-3A6.27,6.27,0,0,1,6.95,6,4.38,4.38,0,0,1,9.71,5,2.83,2.83,0,0,1,12.29,6.32ZM6.93,11.4a2.87,2.87,0,0,0,.49,1.8,1.55,1.55,0,0,0,1.28.63,2.18,2.18,0,0,0,1.62-.74,4.75,4.75,0,0,0,1.06-1.86,7,7,0,0,0,.36-2.17,3.31,3.31,0,0,0-.12-.94,2.26,2.26,0,0,0-.36-.73,1.58,1.58,0,0,0-.58-.48,1.76,1.76,0,0,0-.77-.16,2.18,2.18,0,0,0-1.55.67A4.38,4.38,0,0,0,7.31,9.18,6.69,6.69,0,0,0,6.93,11.4Z"/></svg>